# xmcd
#
# Track frame offsets: 
#        150
#        18834
#        31738
#        46175
#        65768
#        75317
#        87612
#        105648
#        126994
#        140919
#        161127
#
# Disc length: 2439 seconds
#
# Revision: 0
# Processed by: cddbd v1.4PL0 Copyright (c) Steve Scherf et al.
# Submitted via: ExactAudioCopy v0.90b4
#
DISCID=9009850b
DTITLE=Jeff Frazier (Iguanaman) - Tulia Texas Review
DYEAR=2003
DGENRE=Folk
TTITLE0=Tulia, Texas
TTITLE1=Deep East Texas Task Force Blues
TTITLE2=Colored Man
TTITLE3=Millie's Song (It's Been a Great Week)
TTITLE4=Thermobaric Bunker Buster Bomb
TTITLE5=You Never, Never Have To Sleep Alone
TTITLE6=No End to Revolution
TTITLE7=Si No Estoy Aqui
TTITLE8=Citizenship
TTITLE9=Work, Dog, Work
TTITLE10=Too Drunk To Rock
EXTD=
EXTT0=
EXTT1=
EXTT2=
EXTT3=
EXTT4=
EXTT5=
EXTT6=
EXTT7=
EXTT8=
EXTT9=
EXTT10=
PLAYORDER=
